<?xml version="1.0" encoding="utf-8"?>
<!-- Generator: Adobe Illustrator 22.0.0, SVG Export Plug-In . SVG Version: 6.00 Build 0)  -->
<svg version="1.1" id="Capa_1" xmlns="http://www.w3.org/2000/svg" xmlns:xlink="http://www.w3.org/1999/xlink" x="0px" y="0px"
	 viewBox="0 0 24 24" style="enable-background:new 0 0 24 24;" xml:space="preserve">
<style type="text/css">
	.st0{fill:#FFFFFF;}
</style>
<path class="st0" d="M18,0H2v20l2.5,4H21V5.7L18,0z M10,6c1.1,0,2,0.9,2,2s-0.9,2-2,2S8,9.1,8,8S8.9,6,10,6z M8.6,11
	c0.4,0.2,0.9,0.3,1.4,0.3c0.5,0,1-0.1,1.4-0.3c0.9,0.2,1.6,0.8,1.9,2H6.7C7,11.8,7.7,11.3,8.6,11z M19,22H5.5l-1.2-2H18V4.1l1,2.1
	V22z"/>
</svg>
